# xmcd CD database file generated by OrangeCD 5.2
#
# Track frame offsets:
#	150
#	13425
#	22475
#	32350
#	41225
#	50025
#	58175
#	66822
#	74125
#	85875
#	96525
#	104150
#	113650
#	124325
#	133572
#
# Disc length: 1874 seconds
#
# Revision: 2
# Processed by: cddbd v1.5.1PL0 Copyright (c) Steve Scherf et al.
# Submitted via: OrangeCD 5.2
#
DISCID=f107500f
DTITLE=Leroy van Dyke - The Auctioneer
DYEAR=1992
DGENRE=Country
TTITLE0=The Auctioneer
TTITLE1=I Fell In Love With A Pony Tail
TTITLE2=Leather Jacket
TTITLE3=I'm Movin' On
TTITLE4=My Good Mind
TTITLE5=Heartbreak Cannonball
TTITLE6=Chicken Shack Boogie
TTITLE7=One Heart
TTITLE8=Poor Boy
TTITLE9=What This Old World Needs
TTITLE10=Everytime I Ask My Heart
TTITLE11=The Pocketbook Song
TTITLE12=Down At The South End Of Town
TTITLE13=Honky Talk Song
TTITLE14=One Heart (2)
EXTD=
EXTT0=
EXTT1=
EXTT2=
EXTT3=
EXTT4=
EXTT5=
EXTT6=
EXTT7=
EXTT8=
EXTT9=
EXTT10=
EXTT11=
EXTT12=
EXTT13=
EXTT14=
PLAYORDER=
